REM DIRINDEX 1\2\4,1\2\5,1\2\6,1\2\7,1\3\8,1\3\9
REM DIRNAME cjc037,folder01,folder02,folder03,folder04,folder05,folder06,folder07,folder08
TITLE ""
FILE "Disc2Track04.mp3" MP3
  TRACK 01 AUDIO
    TITLE "0:"
    INDEX 01 00:00:00
  TRACK 02 AUDIO
    TITLE "4:cjc037_0953"
    INDEX 01 00:00:07
  TRACK 03 AUDIO
    TITLE "0:"
    INDEX 01 00:01:64
  TRACK 04 AUDIO
    TITLE "4:cjc037_0954"
    INDEX 01 00:02:65
  TRACK 05 AUDIO
    TITLE "0:"
    INDEX 01 00:04:58
  TRACK 06 AUDIO
    TITLE "5:cjc037_0955"
    INDEX 01 00:05:32
  TRACK 07 AUDIO
    TITLE "0:"
    INDEX 01 00:10:21
  TRACK 08 AUDIO
    TITLE "6:cjc037_0956"
    INDEX 01 00:13:55
  TRACK 09 AUDIO
    TITLE "0:"
    INDEX 01 00:16:73
  TRACK 10 AUDIO
    TITLE "7:cjc037_0957"
    INDEX 01 00:20:32
  TRACK 11 AUDIO
    TITLE "0:"
    INDEX 01 00:22:64
  TRACK 12 AUDIO
    TITLE "4:cjc037_0958"
    INDEX 01 00:25:21
  TRACK 13 AUDIO
    TITLE "0:"
    INDEX 01 00:27:06
  TRACK 14 AUDIO
    TITLE "5:cjc037_0959"
    INDEX 01 00:27:59
  TRACK 15 AUDIO
    TITLE "0:"
    INDEX 01 00:31:45
  TRACK 16 AUDIO
    TITLE "6:cjc037_0960"
    INDEX 01 00:35:04
  TRACK 17 AUDIO
    TITLE "0:"
    INDEX 01 00:38:18
  TRACK 18 AUDIO
    TITLE "7:cjc037_0961"
    INDEX 01 00:41:51
  TRACK 19 AUDIO
    TITLE "0:"
    INDEX 01 00:44:09
  TRACK 20 AUDIO
    TITLE "4:cjc037_0962"
    INDEX 01 00:46:45
  TRACK 21 AUDIO
    TITLE "0:"
    INDEX 01 00:48:22
  TRACK 22 AUDIO
    TITLE "5:cjc037_0963"
    INDEX 01 00:49:00
  TRACK 23 AUDIO
    TITLE "0:"
    INDEX 01 00:53:00
  TRACK 24 AUDIO
    TITLE "6:cjc037_0964"
    INDEX 01 00:56:33
  TRACK 25 AUDIO
    TITLE "0:"
    INDEX 01 01:00:43
  TRACK 26 AUDIO
    TITLE "7:cjc037_0965"
    INDEX 01 01:04:00
  TRACK 27 AUDIO
    TITLE "0:"
    INDEX 01 01:07:10
  TRACK 28 AUDIO
    TITLE "4:cjc037_0966"
    INDEX 01 01:09:44
  TRACK 29 AUDIO
    TITLE "0:"
    INDEX 01 01:11:27
  TRACK 30 AUDIO
    TITLE "5:cjc037_0967"
    INDEX 01 01:12:07
  TRACK 31 AUDIO
    TITLE "0:"
    INDEX 01 01:17:10
  TRACK 32 AUDIO
    TITLE "6:cjc037_0968"
    INDEX 01 01:20:42
  TRACK 33 AUDIO
    TITLE "0:"
    INDEX 01 01:24:30
  TRACK 34 AUDIO
    TITLE "7:cjc037_0969"
    INDEX 01 01:27:63
  TRACK 35 AUDIO
    TITLE "0:"
    INDEX 01 01:30:60
  TRACK 36 AUDIO
    TITLE "4:cjc037_0970"
    INDEX 01 01:33:19
  TRACK 37 AUDIO
    TITLE "0:"
    INDEX 01 01:35:04
  TRACK 38 AUDIO
    TITLE "5:cjc037_0971"
    INDEX 01 01:35:57
  TRACK 39 AUDIO
    TITLE "0:"
    INDEX 01 01:42:28
  TRACK 40 AUDIO
    TITLE "6:cjc037_0972"
    INDEX 01 01:45:61
  TRACK 41 AUDIO
    TITLE "0:"
    INDEX 01 01:50:45
  TRACK 42 AUDIO
    TITLE "7:cjc037_0973"
    INDEX 01 01:54:03
  TRACK 43 AUDIO
    TITLE "0:"
    INDEX 01 01:57:45
  TRACK 44 AUDIO
    TITLE "4:cjc037_0974"
    INDEX 01 02:00:06
  TRACK 45 AUDIO
    TITLE "0:"
    INDEX 01 02:01:66
  TRACK 46 AUDIO
    TITLE "5:cjc037_0975"
    INDEX 01 02:02:48
  TRACK 47 AUDIO
    TITLE "0:"
    INDEX 01 02:07:18
  TRACK 48 AUDIO
    TITLE "6:cjc037_0976"
    INDEX 01 02:10:53
  TRACK 49 AUDIO
    TITLE "0:"
    INDEX 01 02:13:24
  TRACK 50 AUDIO
    TITLE "7:cjc037_0977"
    INDEX 01 02:16:56
  TRACK 51 AUDIO
    TITLE "0:"
    INDEX 01 02:18:55
  TRACK 52 AUDIO
    TITLE "4:cjc037_0978"
    INDEX 01 02:21:14
  TRACK 53 AUDIO
    TITLE "0:"
    INDEX 01 02:22:72
  TRACK 54 AUDIO
    TITLE "5:cjc037_0979"
    INDEX 01 02:23:48
  TRACK 55 AUDIO
    TITLE "0:"
    INDEX 01 02:29:70
  TRACK 56 AUDIO
    TITLE "6:cjc037_0980"
    INDEX 01 02:33:31
  TRACK 57 AUDIO
    TITLE "0:"
    INDEX 01 02:38:06
  TRACK 58 AUDIO
    TITLE "7:cjc037_0981"
    INDEX 01 02:41:38
  TRACK 59 AUDIO
    TITLE "0:"
    INDEX 01 02:44:58
  TRACK 60 AUDIO
    TITLE "4:cjc037_0982"
    INDEX 01 02:47:15
  TRACK 61 AUDIO
    TITLE "0:"
    INDEX 01 02:48:70
  TRACK 62 AUDIO
    TITLE "5:cjc037_0983"
    INDEX 01 02:49:47
  TRACK 63 AUDIO
    TITLE "0:"
    INDEX 01 02:54:54
  TRACK 64 AUDIO
    TITLE "6:cjc037_0984"
    INDEX 01 02:58:13
  TRACK 65 AUDIO
    TITLE "0:"
    INDEX 01 03:01:27
  TRACK 66 AUDIO
    TITLE "7:cjc037_0985"
    INDEX 01 03:04:61
  TRACK 67 AUDIO
    TITLE "0:"
    INDEX 01 03:07:24
  TRACK 68 AUDIO
    TITLE "4:cjc037_0986"
    INDEX 01 03:09:56
  TRACK 69 AUDIO
    TITLE "0:"
    INDEX 01 03:11:49
  TRACK 70 AUDIO
    TITLE "5:cjc037_0987"
    INDEX 01 03:12:25
  TRACK 71 AUDIO
    TITLE "0:"
    INDEX 01 03:16:15
  TRACK 72 AUDIO
    TITLE "6:cjc037_0988"
    INDEX 01 03:19:51
  TRACK 73 AUDIO
    TITLE "0:"
    INDEX 01 03:22:45
  TRACK 74 AUDIO
    TITLE "7:cjc037_0989"
    INDEX 01 03:26:02
  TRACK 75 AUDIO
    TITLE "0:"
    INDEX 01 03:28:24
  TRACK 76 AUDIO
    TITLE "4:cjc037_0990"
    INDEX 01 03:30:56
  TRACK 77 AUDIO
    TITLE "0:"
    INDEX 01 03:32:30
  TRACK 78 AUDIO
    TITLE "5:cjc037_0991"
    INDEX 01 03:33:08
  TRACK 79 AUDIO
    TITLE "0:"
    INDEX 01 03:36:72
  TRACK 80 AUDIO
    TITLE "6:cjc037_0992"
    INDEX 01 03:40:31
  TRACK 81 AUDIO
    TITLE "0:"
    INDEX 01 03:43:04
  TRACK 82 AUDIO
    TITLE "7:cjc037_0993"
    INDEX 01 03:46:38
  TRACK 83 AUDIO
    TITLE "0:"
    INDEX 01 03:48:36
  TRACK 84 AUDIO
    TITLE "4:cjc037_0994"
    INDEX 01 03:50:71
  TRACK 85 AUDIO
    TITLE "0:"
    INDEX 01 03:52:58
  TRACK 86 AUDIO
    TITLE "5:cjc037_0995"
    INDEX 01 03:53:30
  TRACK 87 AUDIO
    TITLE "0:"
    INDEX 01 03:58:43
  TRACK 88 AUDIO
    TITLE "6:cjc037_0996"
    INDEX 01 04:02:03
  TRACK 89 AUDIO
    TITLE "0:"
    INDEX 01 04:06:72
  TRACK 90 AUDIO
    TITLE "7:cjc037_0997"
    INDEX 01 04:10:30
  TRACK 91 AUDIO
    TITLE "0:"
    INDEX 01 04:14:16
  TRACK 92 AUDIO
    TITLE "4:cjc037_0998"
    INDEX 01 04:16:50
  TRACK 93 AUDIO
    TITLE "0:"
    INDEX 01 04:18:43
  TRACK 94 AUDIO
    TITLE "5:cjc037_0999"
    INDEX 01 04:19:19
  TRACK 95 AUDIO
    TITLE "0:"
    INDEX 01 04:25:45
  TRACK 96 AUDIO
    TITLE "6:cjc037_1000"
    INDEX 01 04:29:08
  TRACK 97 AUDIO
    TITLE "0:"
    INDEX 01 04:33:55
  TRACK 98 AUDIO
    TITLE "7:cjc037_1001"
    INDEX 01 04:37:13
  TRACK 99 AUDIO
    TITLE "0:"
    INDEX 01 04:40:63
  TRACK 100 AUDIO
    TITLE "4:cjc037_1002"
    INDEX 01 04:43:22
  TRACK 101 AUDIO
    TITLE "0:"
    INDEX 01 04:44:72
  TRACK 102 AUDIO
    TITLE "5:cjc037_1003"
    INDEX 01 04:45:52
  TRACK 103 AUDIO
    TITLE "0:"
    INDEX 01 04:50:18
  TRACK 104 AUDIO
    TITLE "6:cjc037_1004"
    INDEX 01 04:53:54
  TRACK 105 AUDIO
    TITLE "0:"
    INDEX 01 04:57:10
  TRACK 106 AUDIO
    TITLE "7:cjc037_1005"
    INDEX 01 05:00:46
  TRACK 107 AUDIO
    TITLE "0:"
    INDEX 01 05:03:34
  TRACK 108 AUDIO
    TITLE "4:cjc037_1006"
    INDEX 01 05:05:70
  TRACK 109 AUDIO
    TITLE "0:"
    INDEX 01 05:07:58
  TRACK 110 AUDIO
    TITLE "5:cjc037_1007"
    INDEX 01 05:08:34
  TRACK 111 AUDIO
    TITLE "0:"
    INDEX 01 05:14:30
  TRACK 112 AUDIO
    TITLE "6:cjc037_1008"
    INDEX 01 05:17:64
  TRACK 113 AUDIO
    TITLE "0:"
    INDEX 01 05:22:22
  TRACK 114 AUDIO
    TITLE "7:cjc037_1009"
    INDEX 01 05:25:54
  TRACK 115 AUDIO
    TITLE "0:"
    INDEX 01 05:29:00
